<svg width="40" height="40" viewBox="0 0 40 40" fill="none" xmlns="http://www.w3.org/2000/svg">
<path d="M11.349 31.2583H28.6383C31.363 31.2583 32.7818 29.8521 32.7818 27.1651V11.8847C32.7818 9.19775 31.363 7.7915 28.6383 7.7915H11.349C8.63695 7.7915 7.21814 9.1852 7.21814 11.8847V27.1651C7.21814 29.8521 8.63695 31.2583 11.349 31.2583ZM11.3364 28.7597C10.2943 28.7597 9.71674 28.2198 9.71674 27.1149V15.5635C9.71674 14.4586 10.2943 13.9187 11.3364 13.9187H28.6509C29.693 13.9187 30.2706 14.4586 30.2706 15.5635V27.1149C30.2706 28.2198 29.693 28.7597 28.6509 28.7597H11.3364ZM17.5767 18.2505H18.3175C18.7695 18.2505 18.9201 18.1124 18.9201 17.6729V16.9321C18.9201 16.4801 18.7695 16.342 18.3175 16.342H17.5767C17.1247 16.342 16.974 16.4801 16.974 16.9321V17.6729C16.974 18.1124 17.1247 18.2505 17.5767 18.2505ZM21.6824 18.2505H22.4232C22.8627 18.2505 23.0133 18.1124 23.0133 17.6729V16.9321C23.0133 16.4801 22.8627 16.342 22.4232 16.342H21.6824C21.2304 16.342 21.0797 16.4801 21.0797 16.9321V17.6729C21.0797 18.1124 21.2304 18.2505 21.6824 18.2505ZM25.7756 18.2505H26.5164C26.9684 18.2505 27.1191 18.1124 27.1191 17.6729V16.9321C27.1191 16.4801 26.9684 16.342 26.5164 16.342H25.7756C25.3362 16.342 25.1855 16.4801 25.1855 16.9321V17.6729C25.1855 18.1124 25.3362 18.2505 25.7756 18.2505ZM13.4835 22.2935H14.2117C14.6637 22.2935 14.8144 22.1553 14.8144 21.7033V20.9625C14.8144 20.5231 14.6637 20.385 14.2117 20.385H13.4835C13.0315 20.385 12.8808 20.5231 12.8808 20.9625V21.7033C12.8808 22.1553 13.0315 22.2935 13.4835 22.2935ZM17.5767 22.2935H18.3175C18.7695 22.2935 18.9201 22.1553 18.9201 21.7033V20.9625C18.9201 20.5231 18.7695 20.385 18.3175 20.385H17.5767C17.1247 20.385 16.974 20.5231 16.974 20.9625V21.7033C16.974 22.1553 17.1247 22.2935 17.5767 22.2935ZM21.6824 22.2935H22.4232C22.8627 22.2935 23.0133 22.1553 23.0133 21.7033V20.9625C23.0133 20.5231 22.8627 20.385 22.4232 20.385H21.6824C21.2304 20.385 21.0797 20.5231 21.0797 20.9625V21.7033C21.0797 22.1553 21.2304 22.2935 21.6824 22.2935ZM25.7756 22.2935H26.5164C26.9684 22.2935 27.1191 22.1553 27.1191 21.7033V20.9625C27.1191 20.5231 26.9684 20.385 26.5164 20.385H25.7756C25.3362 20.385 25.1855 20.5231 25.1855 20.9625V21.7033C25.1855 22.1553 25.3362 22.2935 25.7756 22.2935ZM13.4835 26.3239H14.2117C14.6637 26.3239 14.8144 26.1858 14.8144 25.7463V25.0055C14.8144 24.5535 14.6637 24.4154 14.2117 24.4154H13.4835C13.0315 24.4154 12.8808 24.5535 12.8808 25.0055V25.7463C12.8808 26.1858 13.0315 26.3239 13.4835 26.3239ZM17.5767 26.3239H18.3175C18.7695 26.3239 18.9201 26.1858 18.9201 25.7463V25.0055C18.9201 24.5535 18.7695 24.4154 18.3175 24.4154H17.5767C17.1247 24.4154 16.974 24.5535 16.974 25.0055V25.7463C16.974 26.1858 17.1247 26.3239 17.5767 26.3239ZM21.6824 26.3239H22.4232C22.8627 26.3239 23.0133 26.1858 23.0133 25.7463V25.0055C23.0133 24.5535 22.8627 24.4154 22.4232 24.4154H21.6824C21.2304 24.4154 21.0797 24.5535 21.0797 25.0055V25.7463C21.0797 26.1858 21.2304 26.3239 21.6824 26.3239Z" fill="white"/>
</svg>