<svg width="40" height="40" viewBox="0 0 40 40" fill="none" xmlns="http://www.w3.org/2000/svg">
<path d="M20 32.5014C27.1066 32.5014 32.9827 26.6253 32.9827 19.5187C32.9827 12.3996 27.094 6.52344 19.9874 6.52344C13.4082 6.52344 7.87109 11.5709 7.10518 18.012C7.67019 17.8864 8.24776 17.8237 8.85044 17.8237C12.7302 17.8237 16.0072 20.5483 16.8485 24.089C17.8027 23.863 18.8449 23.7249 19.9874 23.7249C23.5784 23.7249 26.3407 25.0432 27.659 26.5374C25.8008 28.6091 23.0008 29.9275 19.9874 29.9275C18.8072 29.9275 17.5139 29.6889 16.409 29.2494C16.1956 29.9275 15.6808 30.7687 15.0279 31.4844C16.5723 32.1373 18.2422 32.5014 20 32.5014ZM19.9874 21.5527C17.5516 21.5276 15.6808 19.4936 15.6682 16.8066C15.6431 14.2704 17.5642 12.1484 19.9874 12.1484C22.3982 12.1484 24.3066 14.2704 24.3066 16.8066C24.3066 19.4936 22.4233 21.5778 19.9874 21.5527ZM8.85044 32.5516C12.3661 32.5516 15.3167 29.6136 15.3167 26.0728C15.3167 22.5321 12.4037 19.6066 8.85044 19.6066C5.3097 19.6066 2.3842 22.5321 2.3842 26.0728C2.3842 29.6261 5.3097 32.5516 8.85044 32.5516ZM8.09709 29.8898C7.85853 29.8898 7.56975 29.8019 7.38141 29.5884L5.02092 27.0145C4.88281 26.8764 4.79492 26.6253 4.79492 26.4118C4.79492 25.8594 5.22181 25.5078 5.69893 25.5078C6.00027 25.5078 6.22628 25.6208 6.37695 25.7966L8.04687 27.6172L11.236 23.185C11.4118 22.9464 11.6881 22.7958 12.0019 22.7958C12.4916 22.7958 12.906 23.185 12.906 23.6872C12.906 23.8504 12.8432 24.0388 12.7176 24.2146L8.85044 29.5508C8.69977 29.7642 8.41099 29.8898 8.09709 29.8898Z" fill="white"/>
</svg>