<svg width="30" height="30" viewBox="0 0 30 30" fill="none" xmlns="http://www.w3.org/2000/svg">
<path d="M6.24231 16.5692H10.4234C10.9037 16.5692 11.1956 16.3526 11.2992 15.9289L12.5893 9.98686L14.9623 24.3005C15.0942 25.1009 16.3183 25.0915 16.4784 24.3099L18.7573 13.5558L19.2093 15.8441C19.3129 16.3338 19.5954 16.5692 20.0945 16.5692H23.7671C24.2002 16.5692 24.5487 16.2302 24.5487 15.7971C24.5487 15.3545 24.2097 15.0155 23.7671 15.0155H20.4994L19.4447 10.307C19.2752 9.54426 18.1264 9.54426 17.9475 10.3353L15.7157 20.3454L13.3332 5.88111C13.2108 5.09951 12.0713 5.08068 11.9018 5.87169L9.9243 15.0155H6.24231C5.79972 15.0155 5.45129 15.3639 5.45129 15.7971C5.45129 16.2302 5.79972 16.5692 6.24231 16.5692Z" fill="white"/>
</svg>